<?xml version="1.0" encoding="UTF-8"?><svg id="Layer_1" xmlns="http://www.w3.org/2000/svg" viewBox="0 0 412 469"><defs><style>.cls-1{fill:#8c3e3e;}.cls-1,.cls-2,.cls-3,.cls-4,.cls-5,.cls-6,.cls-7,.cls-8,.cls-9,.cls-10,.cls-11,.cls-12,.cls-13{stroke-width:0px;}.cls-2{fill:#6b3030;}.cls-3{fill:#5b0000;}.cls-4{fill:#fee5e2;}.cls-14{stroke:#6b3030;stroke-width:1.13px;}.cls-14,.cls-9{fill:#fff;}.cls-14,.cls-15{stroke-miterlimit:10;}.cls-6{fill:#bf734c;}.cls-7{fill:#4c1b1b;opacity:.53;}.cls-8{fill:#ea9650;}.cls-15{fill:none;stroke:#2b1308;}.cls-10{fill:#874341;}.cls-11{fill:#ed9a9a;}.cls-12{fill:#2b1308;opacity:.65;}.cls-13{fill:#682c2c;}</style></defs><path class="cls-4" d="M271.22,238.46c9.14,4.7,12.3,13.41,16.67,21.86,4.25,8.21,7.61,16.82,10.35,25.59,3.29,10.49,7.18,20.8,10.82,31.19,3.68,10.51,5.97,20.7,8.19,31.54.36,1.76.73,3.56.53,5.34-.22,1.96-1.09,3.8-1.96,5.59-5.03,10.3-10.35,20.48-15.96,30.5-4.92,8.79-10.68,17.65-13.95,27.16-.08.25-.19.52-.43.65-.2.1-.44.07-.66.03-.66-.1-1.34-.22-2.03-.36.19-.54.43-1.1.68-1.69-1.42-.99-14.31-7.34-15.49-6.05-.28.31-.51.62-.7.94-.2-.18-.41-.36-.6-.56,8.19-16.84,11.16-35.91,18.54-53.16,1.55-3.63,3.29-7.37,6.46-9.88-5.67-11.25-11.02-22.67-16.04-34.19-4.55-10.43-10.44-21.4-11.84-32.72-.96-7.67.16-15.42,1.27-23.08,1-6.63,3.27-12.66,6.17-18.71Z"/><path class="cls-2" d="M282.77,417.55c-1.2,3.14-1.6,5.6-1.02,9.34,1.3,8.46-.95,17.38-6.16,24.36-.9,1.19-26.03-10.27-28.77-11.71,2.88-3.6,4.79-7.9,5.5-12.37-2.62,2.14-4.96,4.8-8.23,5.85-3.27,1.04-7.81-.61-7.9-3.89,7.25-.98,11.13-9.03,17.97-11.49,3.11-1.11,6.55-.96,9.87-1.19.39-.02.81-.07,1.12-.29.34-.24.5-.66.64-1.04.05-.12.09-.25.12-.39.44-1.38.61-2.73,1.35-3.97.37.34.77.67,1.18.98,3.94,2.97,9.42,4.87,14.32,5.82Z"/><path class="cls-4" d="M267.97,409.82c1.18-1.29,14.07,5.06,15.49,6.05-.25.59-.49,1.15-.68,1.69t-.01,0c-4.9-.95-10.38-2.85-14.32-5.82-.41-.31-.81-.64-1.18-.98.19-.32.42-.64.7-.94Z"/><path class="cls-10" d="M132.27,197.4c1.83-.18,2.89-1.95,4.06-3.3,1.76-2.02,4.36-3.38,7.1-3.71,2.75-.34,5.62.36,7.85,1.91-.82,1.32-2.38,1.99-3.74,2.81-7.11,4.35-9.14,14.2-16.51,17.83-.62.31-5.04.93-5.05,1-.43,2.65-1.25,5.07-1.55,7.76-4.91-.07-9.81-.62-14.6-1.65-.02,0,1.29-4.79,1.34-5.03.02-.11.05-.23.01-.33-.07-.17-.27-.24-.44-.31-2.89-1.06-4.35-3.96-4.87-6.67-.59-3.12-.23-6.32-.31-9.48-.19-7.73-3.04-15.3-2.5-23.02.09-1.24.27-2.48.6-3.69.18-.61.45-1.28,1.07-1.52.64-.25,1.38.1,1.78.62.41.52.53,1.19.66,1.83,1.11,6.02,1.84,12.11,2.19,18.21.83.32,1.27-.93,1.19-1.77,0-5.81-.91-11.67-1.34-17.47-.22-2.8-1.67-11.54,1.55-13.3,1.77-.96,2.7.69,2.9,2.04.81,5.31,1.47,10.63,1.99,15.97.15,1.52.54,13.33,1.82,13.13,1.28-.22-1.33-28.49-1.44-31.46-.06-1.4.12-3.15,1.51-3.63,1.4-.48,2.93-.03,3.71,1.18.58.88.75,1.96.88,3,.81,5.75,1.45,11.53,1.93,17.3.24,2.82.43,5.65.59,8.47.03.51-.22,6.59,1.34,3.87.47-.79.52-1.75.57-2.65.25-5.62.51-11.64-.45-17.21-.39-2.29-2.34-7.9.79-9.26,1.54-.67,2.89,1.2,3.41,2.72,4.11,11.36,3.89,24.06,1.95,35.79Z"/><path class="cls-1" d="M242.32,345.66c4.25-.07,6.98,4.22,4.94,7.66-1.47,2.47-5.04,2.63-7.58,1.32-1.52-.78-2.67-2.1-2.78-3.76-.19-2.67,2.47-5.17,5.42-5.22Z"/><path class="cls-4" d="M273.87,238.45c13.13,4.55,40.62,102.83,43.37,110.19s-6.07,20.26-6.07,20.26l-20.55,37.57-9.62,17.53-11-32,22-45-25-50,6.87-58.55Z"/><path class="cls-3" d="M131.33,446.23c1.42,29.63,2.84,59.26,4.27,88.89.17,3.52.39,7.21,2.21,10.23,19.65,5.42,40.31,7.17,60.6,5.12-1.31-36.19.53-72.5,5.49-108.38,2.73,1.33,5.75,2.06,8.78,2.11,4.07,24.95,8.13,49.9,12.2,74.85,1.34,8.2,2.67,16.6,1.14,24.77,17.12-.37,34.28.67,51.23,3.11-1.52-15.86,3.49-31.53,5.44-47.34,1-8.18,1.19-16.43,1.32-24.67.32-19.64.34-39.58-4.92-58.5-2.74-9.84-7.3-19.8-15.77-25.51-9.12-6.15-20.89-6.22-31.89-6.06-22.35.31-44.7.62-67.04.93-6.84.09-17.3-3.5-23.37.22-6.23,3.82-9.45,19.31-9.92,25.74-.85,11.55.25,22.96.25,34.49Z"/><path class="cls-1" d="M192.13,222.95c-13.69,1.64-27.04,6.08-38.99,12.97,2.51,14.5,5.02,29.3,2.82,43.85-.82,5.42-2.28,11.02-.75,16.28,1.89,6.48,8.07,11.4,8.66,18.13.23,2.64-.45,5.28-.64,7.92-.42,5.88,1.58,11.63,3.54,17.18-2.13-.03-3.84,1.88-4.5,3.89s.33,4.54-.87,6.3c-4.41,6.53-13.7,17.09-19.41,28.53-3,6-11,23-11.37,28.52,6.76,2.11,40.17,17.52,74.37,17.48,33.88-.04,68.56-15.52,77.06-16.19-3.06-10.81-6.4-17.66-9.53-26.15-3.23-8.77-7.53-15.66-11.81-24.35-1.29-2.62-.72-6.3-5.09-8.33,3.83-1.2,4.5-4.59,5.65-8.44.69-2.31,2.39-4.62,3.08-6.94.36-1.19.68-2.59-.09-3.56-.92-1.17-1.91-1.02-2.79-2.22-.43-.58-.48-1.35-.52-2.08-.31-5.56-.42-11.73,3.19-15.97,1.45-1.7,3.4-2.94,4.75-4.71,1.22-1.61,1.89-3.56,2.45-5.5,2.57-8.9,3.32-18.32,2.18-27.51-1.06-8.53-.34-17.18,1.53-25.56.41-1.84.85-3.89-.12-5.5-.73-1.21-2.09-1.87-3.38-2.46-9-4.12-18-8.25-27-12.37-6.16-2.82-12.53-5.7-19.3-5.89-5.11-.15-10.13,1.24-15.21,1.81-6.16.68-11.76.14-17.92.88Z"/><path class="cls-5" d="M142.74,125.55c-7.15,3.98-11.9,14.94-11.99,23.12s4.46,16.25,11.5,20.4c3.11,1.83,6.85,2.93,10.34,2.04-3.43,4.29-3.94,10.69-1.22,15.46s8.49,7.6,13.92,6.83c-.23,4.35,1.68,8.7,4.83,11.7s7.46,4.67,11.81,4.91c4.93.27,9.93-1.28,13.84-4.29.48-.37.99-.78,1.59-.8.53-.02,1.02.26,1.48.52,4.84,2.77,10.21,4.59,15.74,5.34.67.09,1.36.17,2.03.05.75-.13,1.44-.49,2.11-.85,1.7-.9,3.41-1.8,5.11-2.7.68-.36,1.39-.73,2.16-.8.67-.06,1.34.12,1.99.29,3.09.83,6.17,1.66,9.26,2.5"/><path class="cls-5" d="M142.6,127.14c-4.94-11.95-2.58-26.59,5.86-36.39,8.44-9.8,22.57-14.3,35.12-11.19,2.03-3.71,5.69-6.33,9.65-7.8s8.23-1.9,12.46-2.06c4.65-.18,9.39-.04,13.82,1.41s8.53,4.36,10.56,8.55c5.49-2.88,12.57-2.46,17.68,1.05s8.04,9.96,7.32,16.13c5.54-.27,10.29,2.47,14.22,6.38,3.93,3.92,6.37,9.16,7.5,14.59,1,4.82.79,10.4-2.66,13.9,3.88,1.6,5.1,6.45,5.46,10.64.38,4.5.36,9.11-.91,13.45s-3.91,8.4-7.82,10.68c2.7,3.14,2.39,8.42-.66,11.23-.47.43-1,.82-1.25,1.41-.26.61-.16,1.31-.26,1.96-.22,1.45-1.54,2.65-3,2.73-.16,8.74-7.39,16.8-16.06,17.91-2.1,4.94-7.65,8.16-12.97,7.53"/><path class="cls-13" d="M200,185h19.82l4.69,26.56c.95,5.36,4.18,10.04,8.86,12.81l19.63,11.63-40,28-43-29,17.38-10.43c4.82-2.89,8.08-7.8,8.87-13.36l3.74-26.21Z"/><polygon class="cls-12" points="198.77 193.61 197.34 203.63 224.51 211.56 220.79 190.51 199.31 189.86 198.77 193.61"/><path class="cls-13" d="M164.11,155.44c.54,4.63,1.84,9.16,3.81,13.38,1.07,2.29,2.48,4.62,4.76,5.72s5.59.31,6.36-2.1c.1,2.84.91,5.65,2.34,8.09,2.92,4.99,8.46,9.57,13.82,11.73,6.8,2.74,12.03,4.04,17.8,3.74,6.45-.33,11.44-2.59,17.28-5.32s11.91-10.89,12.96-17.26c1.46,1.3,3.83,1.11,5.47.04s2.7-2.82,3.58-4.58c1.32-2.64,2.37-5.41,3.12-8.27.69-2.62,1.13-5.39.56-8.04s-2.3-5.18-4.86-6.09c-1.48-.52-3.63-.07-3.81,1.5,1.68-2.2,1.98-5.15,1.92-7.91-.22-10.51-5.06-21.12-13.68-27.14-4.27-2.98-9.26-4.78-14.31-6.05-6.64-1.68-13.55-2.53-20.36-1.79s-13.53,3.14-18.86,7.44c-2.9,2.34-5.29,5.24-7.5,8.25-7.53,10.22-3.65,28.68-5.12,27.94s-3.03-.38-4.08.75c-1.5,1.61-1.46,3.93-1.22,5.98Z"/><path class="cls-5" d="M191.01,136.35c2.75.37,5.24,2.58,5.66,5.33-1.51-1.76-3.85-2.63-6.16-2.83-2.27-.2-4.5.62-6.69.51,1.45-2.18,4.66-3.35,7.19-3.01Z"/><path class="cls-5" d="M230.01,137.35c2.75.37,5.24,2.58,5.66,5.33-1.51-1.76-3.85-2.63-6.16-2.83-2.27-.2-4.5.62-6.69.51,1.45-2.18,4.66-3.35,7.19-3.01Z"/><path class="cls-9" d="M222.51,172.51c-1.27,1.65-2.54,3.3-3.81,4.95-1.32,1.71-2.68,3.46-4.55,4.54s-6.38.34-8.11-.95c-2.25-1.69-3.91-4.55-5.22-6.91,1.18-.35,5.73.46,6.93.7,1.68.33,3.41.47,5.12.4,2.39-.1,8.03-.63,9.64-2.72Z"/><path class="cls-5" d="M186.94,144.98c1.36-1.07,3.21-1.6,4.88-1.15,1.38.37,2.53,1.39,3.25,2.62s1.02,2.68,1.06,4.1c-.41-1.06-.94-2.1-1.71-2.95s-1.81-1.48-2.95-1.58c-.93-.09-1.86.18-2.75.47-1.61.52-2.97,1.2-4.2,2.38-.83-.69,1.82-3.43,2.41-3.9Z"/><path class="cls-5" d="M228.55,145.98c-1.36-1.07-3.21-1.6-4.88-1.15-1.38.37-2.53,1.39-3.25,2.62s-1.02,2.68-1.06,4.1c.41-1.06.94-2.1,1.71-2.95s2.79-1.6,3.93-1.61c2.98-.03,4.74,1.7,5.97,2.88.03-.88-1.82-3.43-2.41-3.9Z"/><path class="cls-5" d="M211.86,156.46c.35,3.89.73,7.84,2.2,11.45-4.42-2.02-6.83-3.27-10.06-6.91,3,2,3.9,2.68,7.21,3.81-.7-1.57-.84-4.34-.89-6.06-.09-2.87.59-10.51,1.49-11.31-.04,1.48-.29,2.94-.26,4.44s.17,3.06.31,4.59Z"/><path class="cls-11" d="M164.64,232.06c.86,11.09,5.59,21.84,13.19,29.97s18.01,13.57,29.02,15.17c3.12.45,6.3.61,9.43.26,5.28-.58,10.29-2.56,15.23-4.51,3.96-1.57,7.98-3.17,11.41-5.7,6.54-4.83,10.28-12.5,13.42-20,.96-2.29,1.9-4.64,2.16-7.12s-.27-5.14-1.93-6.99c-1.52-1.7-3.78-4.52-5.93-5.27-4.67-1.63-9.35-3.26-14.09-4.67-.38,4.34-3.22,10.21-6.85,12.62s-7.97,3.54-12.28,4.14c-9.92,1.36-20.91-.26-28.1-7.23-3.49-3.38-4.59-7.93-9.73-6.56-1.44.38-15.03,4.74-14.94,5.9Z"/><path class="cls-11" d="M166.57,338.21c.65.81-1.02-.76-3.57,1.79-1,1-1,2.98-1,5s-.54,2.27,0,5c7.59.13,15.71,0,23.29.13,4.02.07,8.24.19,11.73,2.19,1.56.89,2.94,2.14,4.66,2.65,3.46,1.03,7.1-1.19,10.7-.88,3.41.29,6.18,2.74,9.18,4.39,4.76,2.61,10.58,3.21,15.77,1.64,5.38-1.62,10.68-5.49,16.08-3.91,1.14.34,2.23.91,3.42,1s3.16-2.02,3.16-3.21c0-3-1.25-3.44-3-4-.62-.2.69-.76,1.05-1.3,2.61-3.82,4.63-8.03,5.98-12.45.54-1.78,1.56-4.48.97-6.25-1-3-4.7-1.97-7.02-1.59s-4.41,1.59-6.62,2.38c-3.87,1.38-8.19,1.5-12.13.32-1.3-.39-2.58-.92-3.94-.98-1.8-.07-3.51.69-5.26,1.1-3.37.79-6.9.26-10.28-.47-14.99-3.23-28.73-10.23-43.28-14.81-5.18-1.63-12.28-2.78-13.28,3.93-.38,2.57.03,5.63.36,8.19.4,3.08.45,6.93,3.01,10.14Z"/><circle class="cls-14" cx="245" cy="347" r="5.5"/><polygon class="cls-6" points="174 170 167 192 186 191 174 170"/><polygon class="cls-6" points="247 170 240 192 259 191 247 170"/><path class="cls-15" d="M169.68,153.19l-.78.24c-1.13.34-1.9,1.38-1.9,2.56v.42"/><path class="cls-15" d="M172,158l-.94,1.89c-.61,1.22-.26,2.71.83,3.53l.78.58c.7.53.78,1.56.15,2.18h0c-.49.49-.59,1.24-.26,1.84l1.08,1.98"/><path class="cls-15" d="M252.5,151.15l-1.6.84c-.91.48-1.63,1.25-2.04,2.19l-2.37,5.42"/><path class="cls-15" d="M249.82,152.79l.78.24c1.13.34,1.9,1.38,1.9,2.56v.42"/><polygon class="cls-8" points="169.81 183.16 174 191.63 167 192 169.81 183.16"/><polygon class="cls-8" points="251.16 177.28 246.78 191.64 251.62 191.39 254.51 183.15 251.16 177.28"/><path class="cls-7" d="M190.06,113.02c.49,2.17.98,4.35,1.48,6.52.14.61.29,1.24.7,1.7.36.41.87.63,1.38.84,2.6,1.08,5.34,2.01,7.47,3.86,2.27,1.97,3.6,4.78,5.11,7.39s3.4,5.22,6.2,6.31c2.69,1.05,5.88.54,8.4,1.96,2.89,1.63,4.02,5.28,6.63,7.33,3.08,2.41,7.47,2.09,11.06,3.64.49.21.98.46,1.51.48.73.02,1.39-.4,2-.8,2.5-1.66,5.22-3.66,5.69-6.62.39-2.44-.88-4.79-1.4-7.2-.52-2.41-.28-4.91-.38-7.38-.39-9.72-6.28-18.71-14.23-24.31s-19.96.94-29.67.28c-6.77-.46-4.05-3.65-9,1-1.39,1.3-5.26-1.89-5,0,.56,4.07-1.25,4.04,2.06,5.02Z"/><path class="cls-5" d="M191.8,111.76c.15.71.14,1.45.32,2.15.52,1.91,2.43,3.14,4.35,3.65s3.94.51,5.86.98c4.96,1.2,8.91,5.76,9.39,10.83.15,1.59.04,3.36,1.06,4.59,1.71,2.07,5.02,1.07,7.65,1.61,2.46.51,4.36,2.48,5.78,4.55s2.55,4.38,4.32,6.17,4.41,3.03,6.8,2.24c1.58-.52,3.02-1.87,4.65-1.56.63.12,1.19.49,1.79.72,2.96,1.14,6.1-1.13,8.25-3.47,2.26-2.45,4.24-5.15,5.92-8.03,1.63-2.81,2.98-5.84,3.45-9.05s.02-6.64-1.72-9.38c-2.98-4.69-8.92-6.47-13-10.24-2.27-2.09-3.96-4.79-6.5-6.54-3.58-2.47-8.24-2.65-12.58-2.38s-8.79.87-12.98-.34c-2.49-.72-4.88-2.07-7.47-1.99-5.32.17-8.58,6.03-13.5,8.06-1.16.48-5,1.12-5.18,2.72-.1.86,1.09,1.44,1.61,1.93.83.78,1.49,1.62,1.73,2.76Z"/><path class="cls-7" d="M185.05,115.5c-.92,2.52,1,5.51-.16,7.92-.97,2-3.56,2.57-5.13,4.14-3.19,3.18-1.21,9.09-3.94,12.69-1.09,1.43-2.86,2.38-3.48,4.07-.33.91-.27,1.91-.45,2.86s-.72,1.96-1.66,2.18c-.49.11-.11-.87-.23-1.36-1-4,0-4,0-6,0-2.15-6.08-3.85-6-6,.2-5.22-.64-6.14,3.46-9.38,1.99-1.58,4.17-2.95,5.86-4.85,3.64-4.09,4.76-10.3,9.28-13.4,1.14-.78,2.54-1.32,3.89-1.06,5.66,1.08-.67,6.1-1.43,8.2Z"/><path class="cls-5" d="M183.34,117.1c.36,1.57,1.06,3.18.6,4.73-.84,2.81-4.79,3.36-6.34,5.85-.57.91-.76,2-.86,3.06-.17,1.71-.14,3.45-.53,5.12s-1.29,3.33-2.8,4.14c-.88.47-1.96.67-2.56,1.46-.53.71-.52,1.74-1.13,2.38-.54.58-1.43.68-2.2.55-2.07-.36-3.63-2.08-4.67-3.91-2.3-4.03-2.82-9.05-1.37-13.46s4.82-8.16,9.06-10.05c.56-.25,1.14-.48,1.57-.92.76-.79.77-2.01.84-3.11.12-1.92.58-3.89,1.75-5.42,1.13-1.47,2.8-2.41,4.45-3.26,2.99-1.54,6.37-2.97,9.62-2.09.56.15,1.12.39,1.49.84s.45,1.16.06,1.59c-.47.53,1.26,2.22.71,2.4-.62.2-2.14,1.07-3,2-.94,1.01-2.34.8-3,2-1.33,2.41-2.27,3.41-1.66,6.1Z"/><path class="cls-4" d="M107.2,218.57s1.53-.93,9.67-.25,13.32,4.24,13.32,4.24c-9.19,17.43-14.59,43.41-19.89,58.92s-8.68,36.71-21.49,38.61-13.33.2-16.07-1.95-2.45-6.49-1.59-11.82,12.63-35.33,16.24-42.33,19.81-45.43,19.81-45.43Z"/><path class="cls-4" d="M155.32,235.4c-7.32,1.6-44.24,33.14-44.24,33.14l-31.08,29.46s-4,17-2,20,7.51,3.23,9.26,2.62,6.87-1.51,13.81-5.06,36.1-23.28,40.52-27.92,13.98-5.75,13.98-5.75l2.44-17.88-2.68-28.6Z"/></svg>